<svg width="40" height="46" viewBox="0 0 40 46" fill="none" xmlns="http://www.w3.org/2000/svg">
<path d="M25.764 13.0722C26.2674 13.0722 26.676 12.6646 26.676 12.1601C26.676 11.6558 26.2674 11.2481 25.764 11.2481H13.2416C12.7382 11.2481 12.3295 11.6557 12.3295 12.1601C12.3295 12.6645 12.7382 13.0722 13.2416 13.0722H25.764Z" fill="#57160A"/>
<path d="M38.3257 11.2482H32.1133C31.6099 11.2482 31.2011 11.6558 31.2011 12.1603C31.2011 12.6646 31.6099 13.0723 32.1133 13.0723H37.4137V43.8903H2.58671V13.0722H7.58344C8.08687 13.0722 8.49548 12.6646 8.49548 12.1601C8.49548 11.6558 8.08687 11.2481 7.58344 11.2481H1.67479C1.17137 11.2481 0.762756 11.6557 0.762756 12.1601V44.8021C0.762756 45.3063 1.17137 45.7141 1.67479 45.7141H38.3257C38.8291 45.7141 39.2377 45.3064 39.2377 44.8021V12.1601C39.2377 11.6558 38.8301 11.2482 38.3257 11.2482Z" fill="#57160A"/>
<path d="M28.8482 15.1235C29.3516 15.1235 29.7602 14.7159 29.7602 14.2114V7.56129C29.7602 3.39255 25.2596 0 19.7055 0C14.1734 0 9.67371 3.39255 9.67371 7.56129V14.2115C9.67371 14.7159 10.0823 15.1236 10.5857 15.1236C11.0892 15.1236 11.4978 14.716 11.4978 14.2115V7.56129C11.4978 4.3976 15.1804 1.82396 19.7284 1.82396C24.2537 1.82396 27.9362 4.3976 27.9362 7.56129V14.2115C27.9362 14.7159 28.3438 15.1235 28.8482 15.1235Z" fill="#57160A"/>
<path d="M8.23834 16.5557C8.23834 17.8488 9.29175 18.9013 10.5858 18.9013C11.8799 18.9013 12.9333 17.8489 12.9333 16.5557C12.9333 16.0513 12.5247 15.6436 12.0212 15.6436C11.5178 15.6436 11.1092 16.0512 11.1092 16.5557C11.1092 16.843 10.8748 17.0774 10.5857 17.0774C10.2975 17.0774 10.0622 16.843 10.0622 16.5557C10.0622 16.0513 9.65358 15.6436 9.15015 15.6436C8.64674 15.6436 8.23834 16.0513 8.23834 16.5557Z" fill="#57160A"/>
<path d="M28.8484 18.9013C30.1424 18.9013 31.1958 17.8489 31.1958 16.5557C31.1958 16.0513 30.7872 15.6436 30.2838 15.6436C29.7804 15.6436 29.3718 16.0512 29.3718 16.5557C29.3718 16.843 29.1375 17.0774 28.8484 17.0774C28.5592 17.0774 28.3247 16.843 28.3247 16.5557C28.3247 16.0513 27.9162 15.6436 27.4127 15.6436C26.9093 15.6436 26.5007 16.0512 26.5007 16.5557C26.5009 17.8488 27.5543 18.9013 28.8484 18.9013Z" fill="#57160A"/>
</svg>
